<?xml version="1.0" encoding="utf-8"?>
<!-- Generator: Adobe Illustrator 26.2.1, SVG Export Plug-In . SVG Version: 6.00 Build 0)  -->
<svg version="1.1" id="レイヤー_1" xmlns="http://www.w3.org/2000/svg" xmlns:xlink="http://www.w3.org/1999/xlink" x="0px"
	 y="0px" viewBox="0 0 55 91" style="enable-background:new 0 0 55 91;" xml:space="preserve">
<style type="text/css">
	.st0{fill:#040000;}
	.st1{fill:none;stroke:#040000;stroke-miterlimit:10;}
</style>
<g>
	<path class="st0" d="M27.4,20.53L52.08,64H2.72L27.4,20.53 M27.4,18.5L1,65h52.8L27.4,18.5L27.4,18.5z"/>
</g>
<g>
	<path class="st0" d="M27,36c7.72,0,14,6.28,14,14s-6.28,14-14,14s-14-6.28-14-14S19.28,36,27,36 M27,35c-8.28,0-15,6.72-15,15
		s6.72,15,15,15s15-6.72,15-15S35.28,35,27,35L27,35z"/>
</g>
<g>
	<line class="st1" x1="27.5" y1="19.5" x2="27.5" y2="64.5"/>
</g>
</svg>
